<svg id="Capa_1" enable-background="new 0 0 512.001 512.001" height="512" viewBox="0 0 512.001 512.001" width="512" xmlns="http://www.w3.org/2000/svg"><g><path d="m431.595 124.383-119.974-119.974c-2.787-2.794-6.604-4.409-10.62-4.409-.008 0-.016.001-.024.001h-209.976c-8.284 0-15 6.716-15 15v482c0 8.284 6.716 15 15 15h330c8.284 0 15-6.716 15-15v-361.98c-.08-.411.226-6.019-4.406-10.638zm-115.594-73.169 68.787 68.787h-53.787c-8.271 0-15-6.729-15-15zm-210 430.787v-452h180v75c0 24.813 20.187 45 45 45h75v332z"/><circle cx="166.001" cy="226.001" r="15"/><path d="m346.001 211.001h-120c-8.284 0-15 6.716-15 15s6.716 15 15 15h120c8.284 0 15-6.716 15-15s-6.716-15-15-15z"/><circle cx="166.001" cy="286.001" r="15"/><path d="m346.001 271.001h-120c-8.284 0-15 6.716-15 15s6.716 15 15 15h120c8.284 0 15-6.716 15-15s-6.716-15-15-15z"/><circle cx="166.001" cy="346.001" r="15"/><path d="m346.001 331.001h-120c-8.284 0-15 6.716-15 15s6.716 15 15 15h120c8.284 0 15-6.716 15-15s-6.716-15-15-15z"/><circle cx="166.001" cy="406.001" r="15"/><path d="m346.001 391.001h-120c-8.284 0-15 6.716-15 15s6.716 15 15 15h120c8.284 0 15-6.716 15-15s-6.716-15-15-15z"/></g></svg>